<?xml version="1.0" standalone="no"?>
<!DOCTYPE svg PUBLIC "-//W3C//DTD SVG 20010904//EN"
 "http://www.w3.org/TR/2001/REC-SVG-20010904/DTD/svg10.dtd">
<svg version="1.0" xmlns="http://www.w3.org/2000/svg"
 width="939.000000pt" height="217.000000pt" viewBox="0 0 939.000000 217.000000"
 preserveAspectRatio="xMidYMid meet">
<metadata>
Created by potrace 1.15, written by Peter Selinger 2001-2017
</metadata>
<g transform="translate(0.000000,217.000000) scale(0.100000,-0.100000)"
fill="#000000" stroke="none">
<path d="M3107 2133 c-31 -30 22 -79 176 -160 114 -60 197 -125 222 -174 21
-39 11 -129 -21 -196 -21 -45 -24 -60 -16 -82 6 -14 13 -78 17 -141 7 -130 -8
-251 -35 -290 -9 -14 -27 -56 -40 -95 -12 -38 -32 -87 -42 -109 -11 -21 -18
-50 -15 -63 3 -16 -5 -35 -25 -60 -41 -52 -46 -82 -18 -105 29 -24 36 -23 57
9 10 14 42 51 71 81 44 46 132 196 132 225 0 4 10 21 21 37 15 19 20 36 15 53
-4 19 8 51 52 130 56 102 58 104 104 116 26 7 64 21 85 32 46 23 43 24 43 -6
0 -31 -30 -96 -52 -113 -11 -8 -17 -24 -16 -40 1 -15 1 -65 0 -112 l-2 -86
-151 -214 c-83 -118 -169 -236 -190 -262 -62 -75 -44 -94 33 -35 32 25 49 32
63 26 51 -20 71 8 35 46 -22 24 -22 24 -4 54 11 16 57 79 104 140 64 83 89
110 103 106 9 -3 25 -8 36 -11 26 -8 35 22 15 55 -16 26 -15 30 25 109 23 45
41 90 41 100 0 10 4 22 9 28 14 14 59 171 73 252 21 125 -12 164 -117 136 -58
-15 -109 -12 -121 7 -13 21 9 63 59 116 72 76 89 83 202 83 92 0 135 10 135
30 0 6 -9 10 -21 10 -31 0 -146 30 -214 56 l-60 23 4 61 c3 65 -6 86 -46 101
-39 14 -70 -8 -92 -65 l-19 -51 -43 3 c-26 2 -82 21 -137 48 -52 24 -99 44
-105 44 -18 0 -237 112 -237 120 0 28 -73 54 -93 33z"/>
<path d="M1871 1971 c-20 -13 -5 -46 27 -61 15 -7 72 -23 127 -37 114 -27 145
-44 145 -77 0 -15 20 -41 61 -78 60 -55 60 -57 55 -100 -23 -185 -37 -380 -29
-405 11 -33 -1 -250 -20 -367 -8 -50 -10 -110 -6 -165 4 -47 4 -92 0 -99 -4
-8 -4 -35 1 -60 4 -26 11 -74 14 -107 4 -33 12 -67 19 -75 6 -8 15 -23 18 -32
9 -25 28 -22 75 12 23 16 44 30 46 30 3 0 4 -12 3 -27 -2 -22 2 -28 18 -28 14
0 19 6 18 19 -1 11 6 26 15 32 15 11 15 16 4 35 -13 20 -8 28 94 130 60 60
114 109 121 109 7 0 16 -7 21 -16 5 -9 18 -14 28 -12 25 4 33 75 10 84 -13 5
-10 16 19 68 47 85 32 92 -19 9 -54 -88 -66 -91 -50 -11 8 35 14 93 14 130 0
39 11 108 25 164 41 158 37 170 -90 267 -38 29 -72 62 -74 72 -3 16 37 200 46
214 1 2 30 -2 64 -8 48 -10 67 -10 84 -1 18 10 37 7 106 -14 46 -14 93 -32
104 -40 23 -17 75 -21 75 -6 0 6 10 10 23 10 21 1 22 1 3 15 -11 8 -43 24 -70
34 -46 17 -133 58 -252 119 -23 12 -44 28 -47 35 -3 8 -31 25 -62 38 l-57 23
4 41 c8 79 -20 125 -77 125 -23 0 -55 -42 -67 -87 -6 -24 -11 -43 -13 -43 -1
0 -31 13 -66 28 -83 37 -158 57 -294 77 -60 9 -120 23 -132 31 -25 16 -42 17
-62 5z m694 -895 l60 -42 -1 -53 c-1 -38 -11 -70 -33 -112 -17 -33 -31 -63
-31 -68 0 -5 20 -40 45 -77 25 -36 45 -70 45 -74 0 -13 -281 -280 -295 -280
-27 0 -40 134 -17 174 3 5 6 37 7 70 6 155 22 234 75 354 29 64 54 125 57 135
8 25 21 21 88 -27z"/>
<path d="M5202 1912 c-15 -15 -35 -43 -45 -61 l-18 -34 -90 8 c-49 3 -104 11
-122 16 -50 14 -82 11 -102 -11 -14 -15 -31 -20 -70 -20 -28 0 -74 -7 -101
-15 -46 -14 -51 -14 -76 5 -26 19 -30 19 -58 5 -36 -19 -38 -39 -7 -60 18 -11
64 -15 209 -17 126 -2 191 -7 199 -15 9 -9 8 -22 -4 -55 -8 -23 -22 -75 -32
-114 -16 -67 -16 -77 -1 -149 20 -98 20 -144 0 -185 -9 -18 -17 -50 -17 -71 0
-21 -6 -44 -13 -50 -8 -6 -14 -20 -14 -30 0 -22 54 -59 87 -59 22 0 26 7 38
68 4 18 15 37 26 42 15 8 19 22 19 58 0 26 3 63 6 82 l6 35 140 2 c81 2 147
-1 159 -7 39 -21 52 -67 46 -158 -5 -60 -2 -94 7 -117 13 -31 18 -33 96 -48
137 -25 156 -1 64 80 l-55 49 -9 139 c-4 77 -14 152 -21 168 -21 46 -69 68
-171 78 -51 4 -96 9 -101 9 -4 0 -12 11 -18 24 -9 18 -7 30 5 55 9 17 20 31
25 31 5 0 16 21 26 46 15 40 20 45 41 40 13 -4 45 -20 71 -36 46 -29 73 -38
73 -23 0 4 -28 35 -61 69 l-61 62 17 46 c19 51 15 98 -12 128 -23 26 -50 22
-81 -10z"/>
<path d="M1381 1655 c-17 -20 -31 -42 -31 -50 0 -20 -13 -26 -84 -36 -60 -8
-178 -58 -238 -101 -15 -10 -42 -46 -60 -80 -17 -33 -47 -72 -65 -87 -37 -29
-44 -69 -17 -95 32 -33 53 -20 88 57 46 100 62 113 144 110 36 -1 70 -7 76
-13 7 -7 7 -25 -1 -57 -48 -220 -48 -218 -33 -264 14 -41 19 -150 12 -274 -1
-27 -2 -63 -1 -80 1 -16 -2 -59 -6 -95 -13 -121 -11 -141 14 -161 13 -11 39
-19 60 -19 47 0 56 -8 34 -32 -16 -17 -16 -20 1 -36 17 -16 19 -15 54 23 l37
41 125 -9 c69 -5 131 -11 138 -13 6 -2 12 -16 12 -32 0 -32 22 -58 40 -47 5 3
10 17 10 29 0 30 13 41 79 63 79 27 65 39 -43 34 l-93 -3 -30 44 c-16 24 -36
66 -45 93 -19 57 -48 215 -48 260 0 17 -7 41 -17 54 -26 37 -42 134 -49 286
-6 161 -1 179 43 155 16 -9 37 -30 48 -47 11 -18 27 -32 36 -33 17 0 178 -186
191 -220 8 -23 24 -26 32 -7 3 8 13 2 29 -17 17 -19 27 -24 32 -16 8 13 -31
73 -150 225 -47 61 -106 148 -130 195 -23 47 -54 96 -68 108 -23 22 -25 29
-20 78 11 100 -46 137 -106 69z m-28 -760 c11 -22 24 -47 29 -55 39 -71 60
-164 61 -274 2 -69 6 -101 15 -104 57 -19 -123 -31 -188 -13 -21 6 -25 12 -22
41 2 19 12 45 23 58 15 19 19 41 19 94 0 39 7 98 16 132 11 40 14 79 10 114
-8 64 6 66 37 7z"/>
<path d="M6629 1645 c-14 -7 -34 -32 -44 -54 l-18 -41 -72 0 c-58 0 -81 -5
-116 -24 -24 -13 -64 -30 -89 -36 -55 -14 -74 -31 -110 -93 -24 -43 -107 -122
-193 -184 -18 -13 -43 -23 -58 -23 -33 0 -55 -47 -35 -75 10 -15 17 -15 55 -3
28 8 46 21 52 36 5 12 13 22 18 22 5 0 49 26 97 58 140 90 175 101 140 41 -36
-60 -3 -184 58 -220 30 -17 35 -25 30 -45 -4 -13 -2 -30 4 -37 5 -6 9 -34 7
-62 -1 -38 -5 -49 -17 -47 -8 1 -21 -4 -27 -12 -15 -18 5 -60 56 -117 29 -32
33 -42 23 -54 -7 -8 -10 -22 -6 -30 7 -19 35 -19 42 0 9 23 24 19 151 -36 157
-67 164 -72 156 -109 -5 -26 -3 -30 16 -30 16 0 21 6 21 25 0 23 2 24 20 15
32 -17 100 -17 110 0 29 45 -9 74 -256 194 l-210 103 4 69 c4 70 15 100 52
143 20 24 23 24 71 12 30 -8 68 -10 95 -6 l45 6 25 -56 c21 -46 26 -73 28
-145 1 -76 4 -93 22 -110 20 -20 22 -20 91 -4 112 27 131 56 60 90 -34 16 -34
18 -40 93 -4 64 -12 91 -54 176 l-48 100 -63 16 c-35 9 -68 21 -74 27 -6 6 4
36 31 89 46 89 49 108 24 135 -16 18 -16 22 11 69 29 53 31 104 3 127 -22 19
-62 22 -88 7z"/>
<path d="M7728 1503 c-15 -16 -30 -40 -33 -55 -6 -25 -12 -28 -49 -28 -75 0
-114 -18 -185 -86 -51 -47 -71 -74 -75 -99 -4 -19 -13 -47 -21 -62 -43 -82 8
-333 71 -349 27 -7 32 -36 13 -78 -9 -19 -9 -32 1 -56 11 -25 11 -41 0 -85
-11 -46 -11 -57 1 -71 13 -16 11 -17 -21 -10 -90 19 -99 19 -106 2 -9 -23 21
-53 65 -66 20 -7 42 -13 49 -16 10 -3 10 -7 0 -24 -9 -15 -10 -22 -1 -31 16
-16 43 -4 43 19 0 38 18 41 172 30 l147 -11 3 -31 c3 -35 31 -43 36 -11 2 12
27 34 67 58 79 46 86 75 30 120 -38 30 -46 66 -19 88 12 10 14 23 9 58 -13 96
-58 256 -80 286 -37 49 -54 121 -56 232 l-1 102 36 44 c47 57 54 94 26 130
-30 38 -86 38 -122 0z m-82 -633 c6 -6 33 -11 62 -13 28 -2 54 -6 57 -9 3 -3
8 -35 10 -72 2 -36 6 -70 10 -76 3 -5 1 -39 -6 -75 -6 -37 -9 -80 -5 -96 l6
-30 -103 6 c-156 9 -146 3 -140 82 3 39 12 78 22 92 49 71 51 77 51 139 0 62
11 77 36 52z"/>
<path d="M302 1326 c-27 -25 -49 -36 -70 -36 -19 0 -43 -11 -63 -27 -45 -38
-125 -164 -146 -230 -16 -52 -16 -59 0 -138 9 -45 17 -100 17 -121 0 -55 18
-114 35 -114 22 0 28 -20 12 -38 -8 -9 -12 -22 -10 -29 2 -7 -6 -25 -18 -42
-41 -55 -5 -131 63 -131 31 0 45 -15 23 -24 -20 -7 -19 -35 0 -43 9 -3 24 2
34 11 10 9 23 16 29 16 7 0 12 5 12 11 0 11 10 11 207 -8 63 -6 63 -6 60 -36
-3 -45 24 -46 54 -3 15 22 35 38 54 42 40 8 75 31 75 49 0 12 -17 13 -98 8
l-99 -6 -22 44 c-20 37 -23 59 -23 134 2 171 3 181 17 161 7 -9 16 -44 20 -77
4 -36 13 -63 20 -66 8 -2 11 -11 8 -19 -7 -19 11 -18 27 1 10 12 9 26 -9 71
-14 39 -21 78 -21 129 0 41 -4 85 -10 99 -6 18 -5 33 7 56 12 25 13 39 4 75
-6 24 -11 63 -11 87 0 26 -8 55 -20 73 -11 17 -20 46 -20 66 0 45 -24 75 -67
84 -27 5 -37 1 -71 -29z m12 -525 c15 -16 17 -34 11 -128 -3 -59 -6 -134 -7
-166 l-2 -58 -80 6 c-103 8 -106 9 -106 40 0 19 5 25 23 25 33 0 64 26 87 70
11 22 30 44 41 51 20 10 21 17 16 73 -3 33 -9 71 -13 84 -8 27 7 29 30 3z"/>
<path d="M8715 1337 c-10 -8 -25 -29 -34 -48 -15 -32 -19 -34 -77 -39 -46 -4
-69 -12 -97 -33 -48 -36 -52 -45 -72 -153 -9 -50 -24 -102 -33 -116 -9 -14
-30 -44 -45 -66 -28 -39 -28 -41 -14 -89 8 -26 12 -64 10 -83 -4 -37 9 -62 81
-165 l39 -55 -27 -29 c-21 -22 -29 -42 -33 -85 -4 -37 -18 -80 -40 -122 -34
-64 -34 -64 -78 -64 -78 0 -63 -28 30 -56 35 -10 40 -15 37 -38 -4 -38 22 -33
48 9 l22 35 114 2 c63 1 126 2 142 2 22 1 29 -5 38 -34 12 -36 41 -52 54 -29
5 7 2 22 -6 35 -18 26 -14 29 50 39 27 3 55 9 62 12 16 6 19 33 4 33 -5 0 -28
17 -50 38 l-42 38 17 40 c14 32 16 58 10 154 -8 132 -16 157 -78 234 -25 30
-58 76 -72 101 -15 25 -40 52 -56 61 -33 16 -31 24 18 80 34 39 100 69 118 54
9 -7 23 -1 50 20 21 16 50 30 64 30 14 0 63 9 109 20 46 11 100 20 121 20 20
0 46 6 57 14 18 14 18 15 2 21 -24 9 -23 22 3 30 11 4 18 12 16 18 -7 22 -55
17 -112 -13 -73 -38 -122 -40 -135 -5 -12 32 -40 32 -78 0 -28 -24 -30 -24
-46 -6 -13 14 -15 31 -10 93 6 71 5 76 -17 91 -28 21 -40 21 -64 4z m-88 -751
c21 -18 49 -39 62 -45 22 -12 23 -17 17 -84 -9 -110 -15 -167 -24 -222 l-7
-50 -118 -3 c-75 -2 -117 1 -117 8 0 5 11 10 25 10 62 0 118 115 119 245 1 44
-3 101 -7 128 -10 57 -1 60 50 13z"/>
<path d="M5284 935 c-4 -8 0 -22 7 -31 20 -25 -4 -38 -146 -78 -105 -30 -131
-35 -140 -24 -16 20 -62 41 -74 34 -16 -10 -13 -36 4 -42 24 -10 17 -22 -19
-34 -18 -6 -44 -22 -56 -35 -22 -23 -22 -27 -8 -41 14 -14 20 -13 67 11 95 48
440 157 513 163 64 4 87 22 30 22 -40 0 -72 11 -72 24 0 22 -22 36 -41 26 -12
-7 -19 -6 -23 5 -7 19 -35 19 -42 0z"/>
</g>
</svg>
